<svg width="24" height="24" viewBox="0 0 24 24" fill="none" xmlns="http://www.w3.org/2000/svg">
<path fill-rule="evenodd" clip-rule="evenodd" d="M8 14.75C7.13805 14.75 6.3114 15.0924 5.7019 15.7019C5.09241 16.3114 4.75 17.138 4.75 18C4.75 18.3315 4.8817 18.6495 5.11612 18.8839C5.35054 19.1183 5.66848 19.25 6 19.25H18C18.3315 19.25 18.6495 19.1183 18.8839 18.8839C19.1183 18.6495 19.25 18.3315 19.25 18C19.25 17.138 18.9076 16.3114 18.2981 15.7019C17.6886 15.0924 16.862 14.75 16 14.75H8ZM4.64124 14.6412C5.53204 13.7504 6.74022 13.25 8 13.25H16C17.2598 13.25 18.468 13.7504 19.3588 14.6412C20.2496 15.532 20.75 16.7402 20.75 18C20.75 18.7293 20.4603 19.4288 19.9445 19.9445C19.4288 20.4603 18.7293 20.75 18 20.75H6C5.27065 20.75 4.57118 20.4603 4.05546 19.9445C3.53973 19.4288 3.25 18.7293 3.25 18C3.25 16.7402 3.75044 15.532 4.64124 14.6412Z" fill="#8E8E93"/>
<path fill-rule="evenodd" clip-rule="evenodd" d="M12 4.75C10.7574 4.75 9.75 5.75736 9.75 7C9.75 8.24264 10.7574 9.25 12 9.25C13.2426 9.25 14.25 8.24264 14.25 7C14.25 5.75736 13.2426 4.75 12 4.75ZM8.25 7C8.25 4.92893 9.92893 3.25 12 3.25C14.0711 3.25 15.75 4.92893 15.75 7C15.75 9.07107 14.0711 10.75 12 10.75C9.92893 10.75 8.25 9.07107 8.25 7Z" fill="#8E8E93"/>
</svg>
